<svg
  width="142"
  height="150"
  viewBox="0 0 142 150"
  fill="none"
  xmlns="http://www.w3.org/2000/svg"
>
<g filter="url(#filter0_d)">
<g filter="url(#filter1_d)">
<path
        d="M71 0L132.488 35.5V106.5L71 142L9.5122 106.5V35.5L71 0Z"
        fill="#56CCF2"
      />
</g>
<g filter="url(#filter2_d)">
<mask id="path-2-inside-1" fill="white">
<path
          fill-rule="evenodd"
          clip-rule="evenodd"
          d="M71 0L132.488 35.5V106.5L71 142L9.5122 106.5V35.5L23.1857 27.6056L44.4771 48.897L47.1752 46.1989C49.2967 44.066 51.8202 42.3751 54.5996 41.2241C57.3791 40.0732 60.3592 39.485 63.3675 39.4938C66.8061 39.5032 70.1987 40.2845 73.2951 41.7798C76.3915 43.2752 79.1127 45.4465 81.2581 48.1338C80.4437 48.8453 79.6906 49.624 79.0065 50.4617C77.9353 51.8053 76.5744 52.8895 75.0255 53.6336C73.4766 54.3777 71.7796 54.7623 70.0612 54.7588H55.735V62.3913H70.0612C72.9231 62.3973 75.7494 61.7569 78.3291 60.5179C80.9089 59.2789 83.1755 57.4733 84.9599 55.2358C86.4423 53.384 88.4634 52.0384 90.7437 51.3849C93.024 50.7314 95.451 50.8024 97.6892 51.588C99.9274 52.3736 101.866 53.8351 103.238 55.7703C104.61 57.7056 105.346 60.0192 105.346 62.3913H112.979C112.973 57.3325 110.96 52.4826 107.383 48.9055C103.806 45.3284 98.9563 43.3161 93.8975 43.31C91.8613 43.313 89.8386 43.6415 87.906 44.2832C85.0678 40.4426 81.3706 37.3191 77.1099 35.1623C72.8492 33.0054 68.143 31.875 63.3675 31.8613C56.5848 31.8416 49.9919 34.0992 44.645 38.2726L30.0278 23.6553L71 0ZM53.4987 70.0238L22.9687 39.4938L17.5725 44.8899L42.7064 70.0238H17.5725V73.84C17.5725 88.0099 23.2015 101.599 33.2211 111.619C43.2407 121.639 56.8302 127.268 71 127.268C85.1699 127.268 98.7594 121.639 108.779 111.619C118.799 101.599 124.428 88.0099 124.428 73.84V70.0238H53.4987ZM71 119.635C59.5189 119.621 48.4607 115.301 40.0106 107.528C31.5605 99.7556 26.3331 89.0962 25.3615 77.6563H116.642C115.671 89.0969 110.443 99.7568 101.992 107.529C93.5409 115.302 82.4818 119.622 71 119.635Z"
        />
</mask>
<path
        fill-rule="evenodd"
        clip-rule="evenodd"
        d="M71 0L132.488 35.5V106.5L71 142L9.5122 106.5V35.5L23.1857 27.6056L44.4771 48.897L47.1752 46.1989C49.2967 44.066 51.8202 42.3751 54.5996 41.2241C57.3791 40.0732 60.3592 39.485 63.3675 39.4938C66.8061 39.5032 70.1987 40.2845 73.2951 41.7798C76.3915 43.2752 79.1127 45.4465 81.2581 48.1338C80.4437 48.8453 79.6906 49.624 79.0065 50.4617C77.9353 51.8053 76.5744 52.8895 75.0255 53.6336C73.4766 54.3777 71.7796 54.7623 70.0612 54.7588H55.735V62.3913H70.0612C72.9231 62.3973 75.7494 61.7569 78.3291 60.5179C80.9089 59.2789 83.1755 57.4733 84.9599 55.2358C86.4423 53.384 88.4634 52.0384 90.7437 51.3849C93.024 50.7314 95.451 50.8024 97.6892 51.588C99.9274 52.3736 101.866 53.8351 103.238 55.7703C104.61 57.7056 105.346 60.0192 105.346 62.3913H112.979C112.973 57.3325 110.96 52.4826 107.383 48.9055C103.806 45.3284 98.9563 43.3161 93.8975 43.31C91.8613 43.313 89.8386 43.6415 87.906 44.2832C85.0678 40.4426 81.3706 37.3191 77.1099 35.1623C72.8492 33.0054 68.143 31.875 63.3675 31.8613C56.5848 31.8416 49.9919 34.0992 44.645 38.2726L30.0278 23.6553L71 0ZM53.4987 70.0238L22.9687 39.4938L17.5725 44.8899L42.7064 70.0238H17.5725V73.84C17.5725 88.0099 23.2015 101.599 33.2211 111.619C43.2407 121.639 56.8302 127.268 71 127.268C85.1699 127.268 98.7594 121.639 108.779 111.619C118.799 101.599 124.428 88.0099 124.428 73.84V70.0238H53.4987ZM71 119.635C59.5189 119.621 48.4607 115.301 40.0106 107.528C31.5605 99.7556 26.3331 89.0962 25.3615 77.6563H116.642C115.671 89.0969 110.443 99.7568 101.992 107.529C93.5409 115.302 82.4818 119.622 71 119.635Z"
        fill="#56CCF2"
      />
<path
        d="M132.488 35.5H134.488V34.3453L133.488 33.7679L132.488 35.5ZM71 0L72 -1.73205L71 -2.3094L70 -1.73205L71 0ZM132.488 106.5L133.488 108.232L134.488 107.655V106.5H132.488ZM71 142L70 143.732L71 144.309L72 143.732L71 142ZM9.5122 106.5H7.5122V107.655L8.5122 108.232L9.5122 106.5ZM9.5122 35.5L8.5122 33.7679L7.5122 34.3453V35.5H9.5122ZM23.1857 27.6056L24.5999 26.1914L23.5147 25.1062L22.1857 25.8736L23.1857 27.6056ZM44.4771 48.897L43.0629 50.3112L44.4771 51.7254L45.8913 50.3112L44.4771 48.897ZM47.1752 46.1989L48.5894 47.6131L48.5932 47.6093L47.1752 46.1989ZM54.5996 41.2241L55.3648 43.072V43.072L54.5996 41.2241ZM63.3675 39.4938L63.3617 41.4938H63.362L63.3675 39.4938ZM73.2951 41.7798L72.4253 43.5808L73.2951 41.7798ZM81.2581 48.1338L82.574 49.6399L84.0148 48.3811L82.8211 46.8859L81.2581 48.1338ZM79.0065 50.4617L77.4574 49.1967L77.45 49.2057L77.4427 49.2149L79.0065 50.4617ZM75.0255 53.6336L74.1595 51.8308V51.8308L75.0255 53.6336ZM70.0612 54.7588L70.0653 52.7588H70.0612V54.7588ZM55.735 54.7588V52.7588H53.735V54.7588H55.735ZM55.735 62.3913H53.735V64.3913H55.735V62.3913ZM70.0612 62.3913L70.0655 60.3913H70.0612V62.3913ZM78.3291 60.5179L79.195 62.3208L78.3291 60.5179ZM84.9599 55.2358L83.3986 53.9859L83.3962 53.9888L84.9599 55.2358ZM90.7437 51.3849L90.1927 49.4623L90.7437 51.3849ZM97.6892 51.588L97.0268 53.4752L97.6892 51.588ZM103.238 55.7703L101.606 56.9269V56.9269L103.238 55.7703ZM105.346 62.3913L103.346 62.3912L103.346 64.3913H105.346V62.3913ZM112.979 62.3913V64.3913H114.981L114.979 62.3889L112.979 62.3913ZM107.383 48.9055L105.969 50.3197L107.383 48.9055ZM93.8975 43.31L93.8999 41.31L93.8947 41.31L93.8975 43.31ZM87.906 44.2832L86.2976 45.4718L87.1597 46.6384L88.5363 46.1813L87.906 44.2832ZM63.3675 31.8613L63.3617 33.8613H63.3618L63.3675 31.8613ZM44.645 38.2726L43.2308 39.6868L44.4814 40.9374L45.8756 39.8492L44.645 38.2726ZM30.0278 23.6553L29.0278 21.9233L26.7705 23.2265L28.6136 25.0695L30.0278 23.6553ZM22.9687 39.4938L24.3829 38.0796L22.9687 36.6653L21.5545 38.0796L22.9687 39.4938ZM53.4987 70.0238L52.0845 71.438L52.6703 72.0238H53.4987V70.0238ZM17.5725 44.8899L16.1583 43.4757L14.7441 44.8899L16.1583 46.3042L17.5725 44.8899ZM42.7064 70.0238V72.0238H47.5348L44.1206 68.6096L42.7064 70.0238ZM17.5725 70.0238V68.0238H15.5725V70.0238H17.5725ZM33.2211 111.619L31.8069 113.033L33.2211 111.619ZM124.428 70.0238H126.428V68.0238H124.428V70.0238ZM40.0106 107.528L41.3646 106.056L40.0106 107.528ZM71 119.635L70.9976 121.635L71.0023 121.635L71 119.635ZM25.3615 77.6563V75.6563H23.1844L23.3687 77.8255L25.3615 77.6563ZM116.642 77.6563L118.635 77.8255L118.819 75.6563H116.642V77.6563ZM101.992 107.529L100.638 106.057L101.992 107.529ZM133.488 33.7679L72 -1.73205L70 1.73205L131.488 37.2321L133.488 33.7679ZM134.488 106.5V35.5H130.488V106.5H134.488ZM72 143.732L133.488 108.232L131.488 104.768L70 140.268L72 143.732ZM8.5122 108.232L70 143.732L72 140.268L10.5122 104.768L8.5122 108.232ZM7.5122 35.5V106.5H11.5122V35.5H7.5122ZM22.1857 25.8736L8.5122 33.7679L10.5122 37.2321L24.1857 29.3377L22.1857 25.8736ZM21.7715 29.0198L43.0629 50.3112L45.8913 47.4828L24.5999 26.1914L21.7715 29.0198ZM45.8913 50.3112L48.5894 47.6131L45.761 44.7847L43.0629 47.4828L45.8913 50.3112ZM48.5932 47.6093C50.5281 45.6639 52.8297 44.1217 55.3648 43.072L53.8344 39.3763C50.8106 40.6285 48.0652 42.468 45.7572 44.7885L48.5932 47.6093ZM55.3648 43.072C57.8998 42.0222 60.618 41.4858 63.3617 41.4938L63.3733 37.4938C60.1005 37.4843 56.8583 38.1241 53.8344 39.3763L55.3648 43.072ZM63.362 41.4938C66.5013 41.5024 69.5985 42.2156 72.4253 43.5808L74.1648 39.9788C70.7989 38.3533 67.111 37.5041 63.373 37.4938L63.362 41.4938ZM72.4253 43.5808C75.2522 44.946 77.7365 46.9283 79.6951 49.3816L82.8211 46.8859C80.4889 43.9648 77.5308 41.6044 74.1648 39.9788L72.4253 43.5808ZM79.9422 46.6277C79.0435 47.4129 78.2123 48.2723 77.4574 49.1967L80.5556 51.7267C81.1688 50.9758 81.844 50.2777 82.574 49.6399L79.9422 46.6277ZM77.4427 49.2149C76.5593 50.3229 75.4369 51.2172 74.1595 51.8308L75.8915 55.4364C77.7119 54.5619 79.3113 53.2876 80.5703 51.7085L77.4427 49.2149ZM74.1595 51.8308C72.882 52.4445 71.4825 52.7617 70.0653 52.7588L70.0571 56.7588C72.0767 56.7629 74.0711 56.3109 75.8915 55.4364L74.1595 51.8308ZM70.0612 52.7588H55.735V56.7588H70.0612V52.7588ZM53.735 54.7588V62.3913H57.735V54.7588H53.735ZM55.735 64.3913H70.0612V60.3913H55.735V64.3913ZM70.057 64.3913C73.2201 64.3979 76.3438 63.6902 79.195 62.3208L77.4633 58.7151C75.155 59.8237 72.6261 60.3967 70.0655 60.3913L70.057 64.3913ZM79.195 62.3208C82.0463 60.9514 84.5514 58.9557 86.5235 56.4828L83.3962 53.9888C81.7997 55.9909 79.7716 57.6065 77.4633 58.7151L79.195 62.3208ZM86.5212 56.4857C87.7447 54.9574 89.4127 53.8468 91.2946 53.3075L90.1927 49.4623C87.5141 50.2299 85.14 51.8106 83.3986 53.9859L86.5212 56.4857ZM91.2946 53.3075C93.1766 52.7682 95.1796 52.8268 97.0268 53.4752L98.3516 49.7009C95.7223 48.778 92.8714 48.6947 90.1927 49.4623L91.2946 53.3075ZM97.0268 53.4752C98.874 54.1235 100.474 55.3297 101.606 56.9269L104.87 54.6138C103.258 52.3405 100.981 50.6237 98.3516 49.7009L97.0268 53.4752ZM101.606 56.9269C102.738 58.5241 103.346 60.4335 103.346 62.3912L107.346 62.3914C107.346 59.6049 106.481 56.8872 104.87 54.6138L101.606 56.9269ZM105.346 64.3913H112.979V60.3913H105.346V64.3913ZM114.979 62.3889C114.972 56.8005 112.749 51.4429 108.798 47.4913L105.969 50.3197C109.172 53.5223 110.973 57.8645 110.979 62.3937L114.979 62.3889ZM108.798 47.4913C104.846 43.5397 99.4883 41.3167 93.8999 41.31L93.8951 45.31C98.4243 45.3154 102.766 47.1171 105.969 50.3197L108.798 47.4913ZM93.8947 41.31C91.6452 41.3133 89.4107 41.6762 87.2758 42.3851L88.5363 46.1813C90.2665 45.6068 92.0774 45.3126 93.9004 45.31L93.8947 41.31ZM89.5145 43.0945C86.4908 39.0031 82.5521 35.6756 78.0132 33.3779L76.2066 36.9467C80.189 38.9627 83.6447 41.8821 86.2976 45.4718L89.5145 43.0945ZM78.0132 33.3779C73.4742 31.0802 68.4607 29.8759 63.3733 29.8613L63.3618 33.8613C67.8254 33.8741 72.2241 34.9307 76.2066 36.9467L78.0132 33.3779ZM63.3734 29.8613C56.1427 29.8403 49.1144 32.247 43.4144 36.696L45.8756 39.8492C50.8693 35.9514 57.0269 33.8428 63.3617 33.8613L63.3734 29.8613ZM46.0592 36.8584L31.442 22.2411L28.6136 25.0695L43.2308 39.6868L46.0592 36.8584ZM70 -1.73205L29.0278 21.9233L31.0278 25.3874L72 1.73205L70 -1.73205ZM21.5545 40.908L52.0845 71.438L54.9129 68.6096L24.3829 38.0796L21.5545 40.908ZM18.9867 46.3042L24.3829 40.908L21.5545 38.0796L16.1583 43.4757L18.9867 46.3042ZM44.1206 68.6096L18.9867 43.4757L16.1583 46.3042L41.2921 71.438L44.1206 68.6096ZM17.5725 72.0238H42.7064V68.0238H17.5725V72.0238ZM19.5725 73.84V70.0238H15.5725V73.84H19.5725ZM34.6353 110.205C24.9908 100.56 19.5725 87.4795 19.5725 73.84H15.5725C15.5725 88.5403 21.4122 102.639 31.8069 113.033L34.6353 110.205ZM71 125.268C57.3606 125.268 44.2798 119.849 34.6353 110.205L31.8069 113.033C42.2015 123.428 56.2997 129.268 71 129.268V125.268ZM107.365 110.205C97.7202 119.849 84.6395 125.268 71 125.268V129.268C85.7003 129.268 99.7985 123.428 110.193 113.033L107.365 110.205ZM122.428 73.84C122.428 87.4795 117.009 100.56 107.365 110.205L110.193 113.033C120.588 102.639 126.428 88.5403 126.428 73.84H122.428ZM122.428 70.0238V73.84H126.428V70.0238H122.428ZM53.4987 72.0238H124.428V68.0238H53.4987V72.0238ZM38.6566 109C47.4753 117.112 59.0157 121.62 70.9976 121.635L71.0025 117.635C60.0221 117.621 49.4462 113.49 41.3646 106.056L38.6566 109ZM23.3687 77.8255C24.3827 89.7644 29.838 100.889 38.6566 109L41.3646 106.056C33.283 98.6226 28.2836 88.4281 27.3543 77.487L23.3687 77.8255ZM116.642 75.6563H25.3615V79.6563H116.642V75.6563ZM103.346 109.001C112.165 100.89 117.621 89.7651 118.635 77.8255L114.65 77.487C113.72 88.4287 108.72 98.6237 100.638 106.057L103.346 109.001ZM71.0023 121.635C82.9849 121.621 94.5263 117.113 103.346 109.001L100.638 106.057C92.5556 113.491 81.9788 117.622 70.9977 117.635L71.0023 121.635Z"
        fill="white"
        mask="url(#path-2-inside-1)"
      />
</g>
</g>
<defs>
<filter
      id="filter0_d"
      x="5.51221"
      y="0"
      width="130.976"
      height="150"
      filterUnits="userSpaceOnUse"
      color-interpolation-filters="sRGB"
    >
<feFlood flood-opacity="0" result="BackgroundImageFix" />
<feColorMatrix
        in="SourceAlpha"
        type="matrix"
        values="0 0 0 0 0 0 0 0 0 0 0 0 0 0 0 0 0 0 127 0"
      />
<feOffset dy="4" />
<feGaussianBlur stdDeviation="2" />
<feColorMatrix
        type="matrix"
        values="0 0 0 0 0 0 0 0 0 0 0 0 0 0 0 0 0 0 0.25 0"
      />
<feBlend mode="normal" in2="BackgroundImageFix" result="effect1_dropShadow" />
<feBlend
        mode="normal"
        in="SourceGraphic"
        in2="effect1_dropShadow"
        result="shape"
      />
</filter>
<filter
      id="filter1_d"
      x="5.51221"
      y="0"
      width="130.976"
      height="150"
      filterUnits="userSpaceOnUse"
      color-interpolation-filters="sRGB"
    >
<feFlood flood-opacity="0" result="BackgroundImageFix" />
<feColorMatrix
        in="SourceAlpha"
        type="matrix"
        values="0 0 0 0 0 0 0 0 0 0 0 0 0 0 0 0 0 0 127 0"
      />
<feOffset dy="4" />
<feGaussianBlur stdDeviation="2" />
<feColorMatrix
        type="matrix"
        values="0 0 0 0 0 0 0 0 0 0 0 0 0 0 0 0 0 0 0.25 0"
      />
<feBlend mode="normal" in2="BackgroundImageFix" result="effect1_dropShadow" />
<feBlend
        mode="normal"
        in="SourceGraphic"
        in2="effect1_dropShadow"
        result="shape"
      />
</filter>
<filter
      id="filter2_d"
      x="5.51221"
      y="0"
      width="130.976"
      height="150"
      filterUnits="userSpaceOnUse"
      color-interpolation-filters="sRGB"
    >
<feFlood flood-opacity="0" result="BackgroundImageFix" />
<feColorMatrix
        in="SourceAlpha"
        type="matrix"
        values="0 0 0 0 0 0 0 0 0 0 0 0 0 0 0 0 0 0 127 0"
      />
<feOffset dy="4" />
<feGaussianBlur stdDeviation="2" />
<feColorMatrix
        type="matrix"
        values="0 0 0 0 0 0 0 0 0 0 0 0 0 0 0 0 0 0 0.25 0"
      />
<feBlend mode="normal" in2="BackgroundImageFix" result="effect1_dropShadow" />
<feBlend
        mode="normal"
        in="SourceGraphic"
        in2="effect1_dropShadow"
        result="shape"
      />
</filter>
</defs>
</svg>
