<svg
  width="415"
  height="432"
  viewBox="0 0 415 432"
  fill="none"
  xmlns="http://www.w3.org/2000/svg"
>
<path d="M0 332V432H200V232H0V332Z" fill="#007ACC" />
<path
    d="M44.2273 332.664L44.1641 340.854H70.1953V414.823H88.6094V340.854H114.641V332.823C114.641 328.377 114.545 324.663 114.419 324.568C114.323 324.441 98.482 324.377 79.2758 324.409L44.3234 324.505L44.2281 332.663L44.2273 332.664Z"
    fill="white"
  />
<path
    d="M161.38 324.272C166.459 325.542 170.333 327.795 173.888 331.478C175.73 333.447 178.459 337.034 178.682 337.891C178.744 338.145 170.047 343.987 164.777 347.256C164.587 347.384 163.824 346.558 162.967 345.288C160.396 341.542 157.698 339.923 153.57 339.638C147.508 339.224 143.602 342.399 143.634 347.7C143.634 349.256 143.856 350.177 144.491 351.447C145.825 354.209 148.301 355.859 156.079 359.224C170.396 365.384 176.523 369.447 180.333 375.224C184.587 381.67 185.539 391.955 182.65 399.605C179.476 407.923 171.603 413.574 160.523 415.447C157.094 416.05 148.968 415.955 145.285 415.288C137.254 413.859 129.634 409.891 124.936 404.685C123.094 402.653 119.507 397.352 119.73 396.97C119.825 396.844 120.65 396.336 121.57 395.796C122.459 395.288 125.825 393.351 128.999 391.51L134.745 388.177L135.952 389.955C137.634 392.526 141.316 396.05 143.539 397.224C149.919 400.59 158.682 400.113 162.999 396.24C164.841 394.558 165.602 392.812 165.602 390.24C165.602 387.923 165.316 386.907 164.11 385.162C162.555 382.939 159.38 381.066 150.364 377.162C140.047 372.716 135.602 369.955 131.539 365.573C129.19 363.034 126.967 358.97 126.047 355.573C125.285 352.748 125.094 345.669 125.698 342.812C127.825 332.843 135.348 325.891 146.205 323.827C149.729 323.161 157.919 323.415 161.38 324.273V324.272Z"
    fill="white"
  />
<g clip-path="url(#clip0)">
<path
      d="M367.344 7H413.679L297.841 206.819L182.004 7H270.62L297.841 53.3348L324.484 7H367.344Z"
      fill="#41B883"
    />
<path
      d="M182.004 7L297.841 206.819L413.679 7H367.344L297.841 126.891L227.76 7H182.004Z"
      fill="#41B883"
    />
<path
      d="M227.759 7L297.84 127.471L367.342 7H324.483L297.84 53.3348L270.618 7H227.759Z"
      fill="#35495E"
    />
</g>
<path
    d="M315 339.463C323.629 339.463 330.625 332.467 330.625 323.837C330.625 315.208 323.629 308.212 315 308.212C306.371 308.212 299.375 315.208 299.375 323.837C299.375 332.467 306.371 339.463 315 339.463Z"
    fill="#00D8FF"
  />
<path
    d="M315 359.662C296.22 360.117 277.486 357.585 259.5 352.163C251.191 349.529 243.442 345.38 236.644 339.925C234.05 338.062 231.889 335.659 230.311 332.882C228.733 330.105 227.774 327.02 227.5 323.837C227.5 313.506 238.85 303.381 257.862 296.756C276.33 290.886 295.625 288.041 315 288.331C334.117 288.064 353.153 290.858 371.387 296.606C379.389 299.157 386.876 303.106 393.5 308.269C396.05 310.045 398.178 312.361 399.733 315.051C401.288 317.742 402.233 320.741 402.5 323.837C402.5 334.575 389.812 345.456 369.375 352.219C351.737 357.465 333.399 359.975 315 359.662ZM315 295.806C296.463 295.558 278.005 298.263 260.319 303.819C242.819 309.925 234.975 318.275 234.975 323.819C234.975 329.619 243.406 338.738 261.919 345.069C279.125 350.23 297.041 352.633 315 352.188C332.603 352.502 350.15 350.121 367.031 345.125C386.25 338.756 395 329.625 395 323.837C394.685 321.851 393.961 319.952 392.874 318.26C391.788 316.568 390.362 315.12 388.688 314.006C382.761 309.426 376.073 305.926 368.931 303.669C351.488 298.192 333.281 295.538 315 295.806Z"
    fill="#00D8FF"
  />
<path
    d="M279.5 401.769C276.584 401.836 273.703 401.128 271.15 399.719C262.2 394.556 259.1 379.669 262.856 359.888C266.998 340.957 274.174 322.821 284.106 306.181C293.423 289.488 305.351 274.393 319.438 261.469C325.645 255.811 332.805 251.297 340.588 248.137C343.402 246.818 346.473 246.135 349.581 246.135C352.69 246.135 355.76 246.818 358.575 248.137C367.881 253.5 370.963 269.925 366.619 291.006C362.349 308.91 355.36 326.053 345.894 341.838C336.905 358.333 325.352 373.297 311.669 386.169C305.236 392.049 297.771 396.687 289.65 399.85C286.399 401.057 282.967 401.705 279.5 401.769ZM290.581 309.894C281.107 325.827 274.229 343.167 270.206 361.263C266.75 379.481 270.069 390.438 274.894 393.225C279.894 396.119 292.031 393.375 306.769 380.5C319.831 368.168 330.858 353.845 339.438 338.063C348.506 322.972 355.211 306.582 359.319 289.463C363.406 269.619 359.875 257.469 354.863 254.581C352.984 253.861 350.976 253.539 348.967 253.635C346.957 253.731 344.989 254.242 343.188 255.137C336.261 257.996 329.892 262.054 324.375 267.125C310.917 279.505 299.523 293.956 290.625 309.931L290.581 309.894Z"
    fill="#00D8FF"
  />
<path
    d="M350.481 401.85C342.013 401.85 331.256 396.725 320.056 387.094C305.723 374.052 293.594 358.777 284.138 341.862C274.33 325.452 267.21 307.578 263.05 288.919C261.246 280.709 260.911 272.245 262.063 263.919C262.329 260.83 263.269 257.837 264.818 255.152C266.366 252.466 268.485 250.153 271.025 248.375C280.319 242.994 296.088 248.525 312.181 262.812C325.56 275.451 336.921 290.067 345.869 306.15C355.671 322.177 362.864 339.66 367.181 357.944C369.063 366.454 369.354 375.24 368.038 383.856C367.724 387.034 366.728 390.106 365.116 392.862C363.504 395.619 361.316 397.994 358.7 399.825C356.189 401.217 353.352 401.916 350.481 401.85ZM290.606 338.1C299.678 354.265 311.264 368.883 324.931 381.406C338.988 393.5 350.138 396.1 354.931 393.281C359.931 390.375 363.619 378.512 359.819 359.319C355.656 341.862 348.756 325.174 339.375 309.875C330.836 294.482 319.992 280.487 307.219 268.375C292.069 254.925 279.781 251.919 274.775 254.819C273.215 256.087 271.934 257.665 271.014 259.452C270.095 261.24 269.556 263.199 269.431 265.206C268.438 272.632 268.761 280.174 270.388 287.487C274.389 305.332 281.217 322.423 290.613 338.112L290.606 338.1Z"
    fill="#00D8FF"
  />
<path
    fill-rule="evenodd"
    clip-rule="evenodd"
    d="M105.957 22.9193L147.031 46.6639C148.216 45.4077 149.577 44.3295 151.071 43.4628C159.589 38.5595 170.454 41.4707 175.402 50C180.299 58.5293 177.392 69.4073 168.873 74.3614C167.391 75.2162 165.793 75.8531 164.129 76.2526V123.759C165.775 124.159 167.355 124.792 168.822 125.638C177.392 130.592 180.299 141.471 175.352 150C170.454 158.529 159.538 161.44 151.02 156.537C149.369 155.589 147.883 154.381 146.617 152.959L105.793 176.557C106.391 178.37 106.695 180.266 106.692 182.175C106.692 191.981 98.7355 200 88.8904 200C79.0453 200 71.0883 192.032 71.0883 182.175C71.0883 180.423 71.3397 178.731 71.8085 177.132L30.746 153.394C29.5732 154.626 28.2315 155.684 26.7612 156.537C18.1918 161.44 7.32652 158.529 2.4293 150C-2.46723 141.471 0.440411 130.592 8.95847 125.638C10.4259 124.792 12.0061 124.159 13.6515 123.759V76.2526C11.9879 75.8531 10.3903 75.2162 8.90777 74.3614C0.389022 69.4588 -2.51862 58.5293 2.37861 50C7.27583 41.4707 18.1911 38.5595 26.7099 43.4628C28.1953 44.3249 29.5494 45.3961 30.7307 46.6438L71.8161 22.8929C71.3318 21.247 71.0867 19.5399 71.0883 17.8241C71.0883 7.96818 79.0453 0 88.8904 0C98.7355 0 106.692 7.96749 106.692 17.8241C106.692 19.5958 106.436 21.3055 105.957 22.9193ZM101.678 30.2353L142.849 54.0355C142.194 56.3301 142.006 58.7332 142.297 61.102C142.587 63.4707 143.351 65.7568 144.542 67.8241C147.048 72.1892 151.131 75.0831 155.662 76.2109V123.777C155.431 123.833 155.201 123.895 154.972 123.96L101.199 30.7116C101.362 30.5558 101.522 30.3973 101.678 30.236V30.2353ZM76.5925 30.722L22.8203 123.969C22.5878 123.902 22.3539 123.839 22.1189 123.781V76.2109C26.6501 75.0831 30.7328 72.1892 33.239 67.8241C34.4324 65.7528 35.1966 63.462 35.4862 61.0884C35.7758 58.7148 35.5847 56.3071 34.9244 54.0091L76.0842 30.2158C76.2501 30.3876 76.4196 30.5565 76.5925 30.7213V30.722ZM93.8647 34.946L147.624 128.172C146.393 129.349 145.337 130.697 144.49 132.175C143.645 133.644 143.014 135.227 142.614 136.874H35.1682C34.768 135.227 34.1357 133.644 33.2904 132.175C32.4404 130.707 31.3869 129.367 30.1612 128.195L83.9314 34.9501C85.5434 35.4149 87.2129 35.6499 88.8904 35.6482C90.6175 35.6482 92.2862 35.4035 93.8647 34.946ZM102.056 170.167L142.96 146.521C142.837 146.135 142.728 145.745 142.631 145.352H35.1453C35.0883 145.583 35.0265 145.813 34.9605 146.042L76.0647 169.804C77.7246 168.076 79.7166 166.702 81.9208 165.764C84.125 164.827 86.4958 164.347 88.8904 164.351C91.3688 164.347 93.8206 164.862 96.088 165.864C98.3555 166.865 100.388 168.331 102.056 170.167Z"
    fill="#E535AB"
  />
<defs>
<clipPath id="clip0">
<rect width="231.68" height="200" fill="white" transform="translate(182 7)" />
</clipPath>
</defs>
</svg>
