<?xml version="1.0" standalone="no"?>
<!DOCTYPE svg PUBLIC "-//W3C//DTD SVG 20010904//EN"
 "http://www.w3.org/TR/2001/REC-SVG-20010904/DTD/svg10.dtd">
<svg version="1.0" xmlns="http://www.w3.org/2000/svg"
 width="150.000000pt" height="150.000000pt" viewBox="0 0 150.000000 150.000000"
 preserveAspectRatio="xMidYMid meet">
<metadata>
Created by potrace 1.11, written by Peter Selinger 2001-2013
</metadata>
<g transform="translate(0.000000,150.000000) scale(0.100000,-0.100000)"
fill="#000000" stroke="none">
<path d="M690 1466 c-30 -18 -122 -72 -203 -118 l-148 -86 25 -25 c14 -14 22
-28 19 -31 -4 -3 2 -6 11 -6 12 0 16 -5 12 -16 -3 -8 -2 -13 3 -10 11 7 33
-19 24 -28 -4 -4 1 -4 11 0 15 6 17 3 11 -14 -4 -14 -2 -22 5 -22 6 0 8 5 5
10 -8 13 1 13 25 0 13 -7 21 -7 26 2 5 7 3 8 -6 3 -9 -5 -11 -4 -6 4 6 9 11 9
24 -1 10 -8 13 -9 9 -1 -4 7 5 18 25 27 22 11 34 13 38 5 5 -7 9 -5 13 5 6 16
51 17 77 1 9 -5 11 -4 6 4 -8 12 23 8 74 -11 14 -5 25 -8 25 -6 0 1 10 -4 22
-13 13 -9 20 -19 15 -24 -4 -4 0 -6 10 -2 18 6 53 -25 41 -37 -5 -4 -3 -6 2
-5 6 2 25 -5 44 -15 18 -10 30 -13 27 -7 -4 6 0 11 8 11 24 0 31 -4 30 -16 -1
-6 4 -11 11 -11 7 0 11 6 8 13 -8 20 35 8 79 -22 21 -15 41 -38 44 -50 4 -13
10 -24 15 -24 5 0 8 -3 8 -7 -1 -5 -1 -10 1 -13 1 -3 3 -15 6 -27 4 -23 -1
-25 -41 -25 -31 0 -35 2 -35 23 0 12 -15 36 -34 55 -53 53 -109 46 -183 -24
-49 -46 -90 -58 -193 -57 -67 1 -75 4 -76 21 0 10 5 25 10 33 8 11 8 13 -1 7
-7 -4 -13 -3 -13 2 0 5 12 10 26 10 18 0 22 -3 13 -9 -8 -5 -11 -9 -6 -9 4 0
16 5 26 12 15 9 22 8 36 -5 20 -21 32 -22 15 -2 -10 13 -9 15 9 15 14 0 20 -4
15 -12 -4 -6 -3 -8 4 -4 5 3 12 3 15 -1 2 -5 3 -3 1 3 -1 6 13 16 32 23 19 7
34 17 34 22 0 6 6 7 13 3 6 -4 9 -4 5 1 -4 4 -2 15 4 23 10 12 7 19 -17 38
-98 78 -237 74 -315 -10 l-24 -27 -107 107 -107 107 -69 -40 -68 -39 -1 -356
-1 -356 33 -18 c23 -13 31 -23 28 -38 -3 -21 -3 -21 11 -2 8 11 15 15 15 9 0
-6 9 -13 21 -16 12 -3 18 -10 15 -15 -4 -6 3 -8 16 -5 23 4 23 4 3 -11 -18
-16 -18 -16 13 -10 29 6 34 4 39 -15 4 -15 8 -19 13 -11 6 9 15 7 36 -6 16
-10 32 -23 36 -29 5 -6 8 -6 8 0 0 6 3 5 8 -1 4 -6 22 -19 40 -28 21 -11 30
-21 25 -29 -4 -7 0 -6 10 2 15 12 17 12 11 -3 -5 -12 -2 -17 8 -14 22 5 129
-54 124 -68 -3 -8 3 -11 20 -8 14 3 24 0 24 -7 0 -7 3 -10 6 -6 7 7 34 -15 28
-24 -8 -14 42 -2 59 14 10 10 25 16 33 13 9 -3 14 1 14 11 0 13 3 14 12 5 8
-8 8 -15 -3 -29 -13 -16 -12 -17 4 -4 10 8 15 21 12 31 -6 19 19 35 37 23 6
-3 8 -1 4 5 -3 6 -2 13 4 17 5 3 10 0 10 -7 0 -7 7 -2 16 10 8 12 22 22 30 22
8 0 14 3 14 8 0 4 9 13 21 20 17 11 20 11 14 0 -3 -7 -1 -6 7 3 19 24 97 61
110 53 7 -4 8 -3 4 4 -6 10 27 36 46 37 4 0 16 7 26 16 31 27 46 34 38 18 -4
-8 -1 -6 7 3 8 10 17 15 20 11 4 -3 7 -1 7 6 0 7 5 9 10 6 6 -3 10 -1 10 5 0
7 7 10 15 7 8 -4 17 -1 21 5 4 7 3 8 -4 4 -7 -4 -12 -2 -12 3 0 6 7 11 16 11
39 0 40 13 39 379 l0 355 -50 29 c-89 53 -358 208 -414 239 -29 17 -76 43
-103 59 -27 16 -50 29 -51 28 -1 0 -27 -15 -57 -33z m-386 -407 c-3 -5 1 -9 9
-9 20 0 50 -37 41 -51 -4 -7 -3 -10 3 -6 14 9 53 -21 53 -40 0 -9 3 -13 6 -10
7 7 44 -30 44 -45 0 -4 3 -7 8 -7 19 3 25 -2 12 -11 -12 -8 -11 -10 7 -10 13
0 29 -10 37 -23 30 -45 61 -53 209 -52 97 0 136 -3 133 -11 -2 -6 2 -11 10
-11 8 0 13 5 11 12 -4 8 49 11 191 11 l196 -1 6 -25 c12 -44 -17 -169 -56
-249 -114 -232 -396 -349 -642 -267 -208 70 -370 289 -360 488 l3 54 90 -1
c163 -2 162 -8 23 133 l-121 123 28 25 c26 23 29 23 46 8 10 -9 16 -21 13 -25z"/>
<path d="M264 1079 c-5 -8 -3 -9 6 -4 10 6 12 4 7 -8 -3 -9 -3 -18 1 -21 4 -3
8 4 9 14 2 23 -13 35 -23 19z"/>
<path d="M310 1036 c0 -3 9 -10 20 -16 11 -6 20 -8 20 -6 0 3 -9 10 -20 16
-11 6 -20 8 -20 6z"/>
<path d="M251 774 c0 -11 3 -14 6 -6 3 7 2 16 -1 19 -3 4 -6 -2 -5 -13z"/>
<path d="M275 781 c-3 -5 -2 -12 3 -15 5 -3 9 1 9 9 0 17 -3 19 -12 6z"/>
<path d="M330 780 c0 -5 5 -10 11 -10 5 0 7 5 4 10 -3 6 -8 10 -11 10 -2 0 -4
-4 -4 -10z"/>
<path d="M387 779 c7 -7 15 -10 18 -7 3 3 -2 9 -12 12 -14 6 -15 5 -6 -5z"/>
<path d="M568 783 c6 -3 10 -8 8 -12 -3 -4 3 -7 13 -7 28 0 20 21 -8 22 -14 1
-20 -1 -13 -3z"/>
<path d="M635 780 c3 -5 8 -10 11 -10 2 0 4 5 4 10 0 6 -5 10 -11 10 -5 0 -7
-4 -4 -10z"/>
<path d="M674 781 c4 -5 1 -12 -4 -14 -6 -3 -5 -4 2 -3 15 3 23 26 8 26 -6 0
-9 -4 -6 -9z"/>
<path d="M706 781 c-4 -5 -2 -12 3 -15 5 -4 12 -2 15 3 4 5 2 12 -3 15 -5 4
-12 2 -15 -3z"/>
<path d="M914 781 c4 -5 1 -12 -4 -14 -6 -3 -5 -4 2 -3 15 3 23 26 8 26 -6 0
-9 -4 -6 -9z"/>
<path d="M946 781 c-4 -5 -2 -12 3 -15 5 -4 12 -2 15 3 4 5 2 12 -3 15 -5 4
-12 2 -15 -3z"/>
<path d="M1013 774 c0 -9 5 -10 17 -4 10 5 20 7 24 5 3 -3 4 -2 1 2 -10 12
-42 10 -42 -3z"/>
<path d="M1104 775 c-18 -14 -18 -14 4 -8 12 3 22 9 22 14 0 12 -3 11 -26 -6z"/>
<path d="M1154 781 c4 -5 1 -12 -4 -14 -6 -3 -5 -4 2 -3 15 3 23 26 8 26 -6 0
-9 -4 -6 -9z"/>
<path d="M1186 781 c-4 -5 -2 -12 3 -15 5 -4 12 -2 15 3 4 5 2 12 -3 15 -5 4
-12 2 -15 -3z"/>
<path d="M360 760 c-9 -6 -10 -10 -3 -10 6 0 15 5 18 10 8 12 4 12 -15 0z"/>
<path d="M299 715 c-4 -30 7 -89 21 -114 6 -12 8 -27 4 -33 -4 -6 -3 -8 4 -4
6 3 13 -6 17 -24 4 -16 10 -30 14 -30 12 0 41 -57 33 -65 -4 -5 -1 -5 6 -1 14
9 84 -53 76 -66 -3 -5 -2 -8 3 -7 20 3 34 -3 64 -30 21 -20 39 -28 58 -26 37
5 73 -5 68 -19 -3 -7 5 -12 17 -13 11 0 15 1 8 4 -6 3 -9 9 -6 14 3 6 11 6 20
-2 7 -6 12 -15 9 -18 -2 -4 2 -8 10 -8 11 0 12 5 3 21 -10 18 -9 19 4 9 8 -7
18 -10 21 -6 11 11 71 10 86 -1 12 -9 13 -8 6 3 -6 11 -3 13 13 9 14 -4 20 -2
16 4 -4 6 -1 9 7 6 8 -3 25 3 38 13 13 10 27 16 32 13 5 -3 9 0 9 5 0 6 5 11
11 11 5 0 7 -6 4 -12 -4 -7 0 -5 9 6 8 10 20 15 27 10 7 -4 10 -3 6 2 -7 12 0
22 38 54 l30 25 -20 -25 -20 -25 22 19 c13 11 23 23 23 28 0 5 5 14 10 21 6 7
18 21 26 32 9 11 12 14 8 6 -5 -9 -3 -12 5 -7 6 4 9 11 6 15 -2 5 2 17 10 27
8 10 15 27 15 37 0 9 4 17 8 17 5 0 9 6 10 13 0 6 5 36 10 65 8 49 8 52 -12
53 -147 7 -886 2 -887 -6z m281 -387 c0 -6 -6 -5 -15 2 -8 7 -15 14 -15 16 0
2 7 1 15 -2 8 -4 15 -11 15 -16z"/>
<path d="M416 415 c4 -8 8 -15 10 -15 2 0 4 7 4 15 0 8 -4 15 -10 15 -5 0 -7
-7 -4 -15z"/>
<path d="M451 384 c0 -11 3 -14 6 -6 3 7 2 16 -1 19 -3 4 -6 -2 -5 -13z"/>
<path d="M1030 379 c0 -5 5 -7 10 -4 6 3 10 8 10 11 0 2 -4 4 -10 4 -5 0 -10
-5 -10 -11z"/>
<path d="M505 340 c10 -11 20 -20 23 -20 3 0 -3 9 -13 20 -10 11 -20 20 -23
20 -3 0 3 -9 13 -20z"/>
<path d="M620 302 c0 -5 7 -9 15 -9 8 0 12 4 9 9 -3 4 -9 8 -15 8 -5 0 -9 -4
-9 -8z"/>
<path d="M761 291 c-8 -5 -9 -11 -3 -15 5 -3 12 1 16 9 6 17 6 18 -13 6z"/>
<path d="M796 292 c-3 -4 4 -9 15 -9 23 -2 25 3 4 10 -8 4 -16 3 -19 -1z"/>
<path d="M625 1161 c-3 -5 -2 -12 3 -15 5 -3 9 1 9 9 0 17 -3 19 -12 6z"/>
<path d="M655 1160 c-3 -5 -1 -10 4 -10 6 0 11 5 11 10 0 6 -2 10 -4 10 -3 0
-8 -4 -11 -10z"/>
<path d="M577 1153 c-10 -9 -9 -23 1 -23 5 0 9 7 9 15 0 17 -1 18 -10 8z"/>
<path d="M975 1049 c-4 -6 -5 -12 -2 -15 2 -3 7 2 10 11 7 17 1 20 -8 4z"/>
<path d="M910 1040 c0 -5 5 -10 11 -10 5 0 7 5 4 10 -3 6 -8 10 -11 10 -2 0
-4 -4 -4 -10z"/>
<path d="M1038 1033 c7 -3 16 -2 19 1 4 3 -2 6 -13 5 -11 0 -14 -3 -6 -6z"/>
<path d="M1070 1020 c0 -5 5 -10 11 -10 5 0 7 5 4 10 -3 6 -8 10 -11 10 -2 0
-4 -4 -4 -10z"/>
<path d="M1110 991 c0 -6 4 -13 10 -16 6 -3 7 1 4 9 -7 18 -14 21 -14 7z"/>
<path d="M1215 320 c-3 -6 1 -7 9 -4 18 7 21 14 7 14 -6 0 -13 -4 -16 -10z"/>
<path d="M368 272 c9 -10 19 -17 21 -16 6 5 -20 34 -30 34 -5 0 -1 -8 9 -18z"/>
<path d="M1075 249 c-4 -6 -5 -12 -2 -15 2 -3 7 2 10 11 7 17 1 20 -8 4z"/>
<path d="M410 240 c0 -5 5 -10 11 -10 5 0 7 5 4 10 -3 6 -8 10 -11 10 -2 0 -4
-4 -4 -10z"/>
<path d="M1040 230 c-9 -6 -10 -10 -3 -10 6 0 15 5 18 10 8 12 4 12 -15 0z"/>
<path d="M936 161 c-4 -5 3 -7 14 -4 23 6 26 13 6 13 -8 0 -17 -4 -20 -9z"/>
<path d="M586 143 c-6 -14 -5 -15 5 -6 7 7 10 15 7 18 -3 3 -9 -2 -12 -12z"/>
<path d="M615 131 c-3 -5 -2 -12 3 -15 5 -3 9 1 9 9 0 17 -3 19 -12 6z"/>
<path d="M670 96 c0 -3 9 -10 20 -16 11 -6 20 -8 20 -6 0 3 -9 10 -20 16 -11
6 -20 8 -20 6z"/>
</g>
</svg>
